<svg xmlns="http://www.w3.org/2000/svg" width="960" height="960" viewBox="0 0 960 960">
  <defs>
    <pattern id="hatch" width="13" height="13" patternUnits="userSpaceOnUse" patternTransform="rotate(20)"><path d="M0 2H13" stroke="#5e5c55" stroke-width="2" opacity=".4"/></pattern>
    <pattern id="cross" width="18" height="18" patternUnits="userSpaceOnUse"><path d="M0 18 18 0" stroke="#6b6962" stroke-width="2" opacity=".35"/></pattern>
    <filter id="rough"><feTurbulence baseFrequency=".014" numOctaves="2" seed="18" result="n"/><feDisplacementMap in="SourceGraphic" in2="n" scale="1.4"/></filter>
  </defs>
  <g fill="none" stroke="#171714" stroke-linecap="round" stroke-linejoin="round" filter="url(#rough)">
    <path stroke-width="9" d="M104 153h752v478H104zM478 155v473"/>
    <path stroke-width="6" opacity=".4" d="M124 173v437m712-435v434"/>
    <path fill="#f5f2e9" stroke-width="9" d="M354 351c12-76 145-81 170-14 16 44-10 102-61 120-47 17-99-14-108-67-2-13-3-26-1-39z"/>
    <path fill="#171714" stroke-width="8" d="M354 362c-1-78 49-118 108-106 39 8 67 36 70 81-48-22-90-25-130-1-17 10-31 19-48 26z"/>
    <path stroke-width="6" d="M403 374l17-3m58 3 18 5m-78 43c19 11 39 11 59-2"/>
    <path fill="url(#hatch)" stroke-width="9" d="M353 483c52-29 126-25 174 10l45 227-75 33H369l-73-35 57-235z"/>
    <path stroke-width="9" d="M365 513c-55 38-88 91-99 157m250-151c53 33 83 86 94 147"/>
    <path fill="#f7f4ec" stroke-width="8" d="M262 485l348-43 23 198-348 43z"/>
    <path stroke-width="6" d="M326 527l214-26m-174 84 134-17"/>
    <path fill="url(#cross)" stroke-width="7" d="M422 503l66 43-52 66-67-43z"/>
    <path stroke-width="5" d="M436 611c36 26 58 59 79 93 22 35 47 67 89 94"/>
    <path fill="#f5f2e9" stroke-width="7" d="M252 640c17-12 38-10 50 4 13 16 8 36-10 48-17 11-40 8-51-8-10-15-5-32 11-44zm362-15c18-9 39-4 49 12 11 18 3 37-17 46-18 8-39 3-49-14-8-16-2-34 17-44z"/>
    <path fill="#f5f2e9" stroke-width="9" d="M367 748h130l39 114-83 20-25-82-15 85-83-13z"/>
    <path stroke-width="5" opacity=".55" d="M113 888c218-18 467-16 724-2"/>
  </g>
</svg>
